<?xml version="1.0" encoding="UTF-8" standalone="no"?>
<!-- Generator: Adobe Illustrator 17.1.0, SVG Export Plug-In . SVG Version: 6.00 Build 0)  -->

<svg
   xmlns:dc="http://purl.org/dc/elements/1.1/"
   xmlns:cc="http://creativecommons.org/ns#"
   xmlns:rdf="http://www.w3.org/1999/02/22-rdf-syntax-ns#"
   xmlns:svg="http://www.w3.org/2000/svg"
   xmlns="http://www.w3.org/2000/svg"
   xmlns:sodipodi="http://sodipodi.sourceforge.net/DTD/sodipodi-0.dtd"
   xmlns:inkscape="http://www.inkscape.org/namespaces/inkscape"
   version="1.1"
   id="Capa_1"
   x="0px"
   y="0px"
   viewBox="0 0 328.76606 229.91038"
   xml:space="preserve"
   sodipodi:docname="card.svg"
   inkscape:version="0.92.2 (5c3e80d, 2017-08-06)"
   width="328.76605"
   height="229.91037"
   inkscape:export-filename="C:\Users\bwilson\sc\ScorekeeperFrontend\src\main\resources\images\card.png"
   inkscape:export-xdpi="4.5930943"
   inkscape:export-ydpi="4.5930943"><metadata
     id="metadata39"><rdf:RDF><cc:Work
         rdf:about=""><dc:format>image/svg+xml</dc:format><dc:type
           rdf:resource="http://purl.org/dc/dcmitype/StillImage" /><dc:title></dc:title></cc:Work></rdf:RDF></metadata><defs
     id="defs37" /><sodipodi:namedview
     pagecolor="#ffffff"
     bordercolor="#666666"
     borderopacity="1"
     objecttolerance="10"
     gridtolerance="10"
     guidetolerance="10"
     inkscape:pageopacity="0"
     inkscape:pageshadow="2"
     inkscape:window-width="1597"
     inkscape:window-height="913"
     id="namedview35"
     showgrid="false"
     inkscape:zoom="1.7498423"
     inkscape:cx="190.98703"
     inkscape:cy="114.89034"
     inkscape:window-x="0"
     inkscape:window-y="0"
     inkscape:window-maximized="0"
     inkscape:current-layer="Capa_1" /><path
     d="m 128.56903,159.46303 c 14.73827,-0.19527 11.39607,23.45968 -2.67121,20 -24.19456,-0.13539 -48.416361,0.27086 -72.593892,-0.2032 -13.776378,-2.77482 -7.324915,-23.58039 5.576714,-19.7968 z m 37.319,0 c -14.73827,-0.19527 -11.39607,23.45968 2.67121,20 8.6054,-0.67745 17.83477,1.61048 25.91951,-1.70807 10.69844,-7.5647 -0.0785,-21.74186 -10.93313,-18.29193 z m 142.625,-68.098997 v -20.7 H 20.253033 v 24.132 c 65.963313,0.13511 131.953817,-0.27046 197.900107,0.2032 13.77637,2.77482 7.32491,23.580387 -5.57672,19.796797 H 20.253033 c 0.211722,27.37199 -0.427863,54.78691 0.327701,82.13147 2.244754,12.81787 16.104549,13.53309 26.457127,12.85953 H 292.41303 c 14.13542,0.27296 17.39242,-14.72086 16.1,-25.89443 v -35.11857 m 20,19.69883 c -0.76457,17.31387 3.81704,37.39507 -10.58525,50.72855 -13.50779,14.52568 -33.83024,9.76428 -51.33642,10.58562 C 188.61865,229.66304 110.63022,230.03534 32.66737,229.6003 12.467038,228.10404 -2.1198959,207.93259 0.253033,188.34462 0.37628049,136.45414 0.00572391,84.548003 0.43975907,32.667373 1.9360183,12.467038 22.107473,-2.119896 41.695447,0.25303301 126.49457,0.37709801 211.30943,0.00462601 296.09869,0.43975901 316.29902,1.936018 330.88596,22.107473 328.51303,41.695443 V 102.04903 M 20.253033,50.665033 H 308.51303 c -0.19841,-10.38694 2.31997,-24.29933 -9.83939,-29.144703 -13.68436,-2.583926 -27.93977,-0.686023 -41.8767,-1.267297 H 36.353033 c -14.135421,-0.272955 -17.392417,14.72086 -16.1,25.89443 z"
     id="path2"
     inkscape:connector-curvature="0"
     sodipodi:nodetypes="ccccccccccccccccccccccccccccccccccccccc" /><g
     id="g4"
     transform="translate(0.253033,-75.713967)" /><g
     id="g6"
     transform="translate(0.253033,-75.713967)" /><g
     id="g8"
     transform="translate(0.253033,-75.713967)" /><g
     id="g10"
     transform="translate(0.253033,-75.713967)" /><g
     id="g12"
     transform="translate(0.253033,-75.713967)" /><g
     id="g14"
     transform="translate(0.253033,-75.713967)" /><g
     id="g16"
     transform="translate(0.253033,-75.713967)" /><g
     id="g18"
     transform="translate(0.253033,-75.713967)" /><g
     id="g20"
     transform="translate(0.253033,-75.713967)" /><g
     id="g22"
     transform="translate(0.253033,-75.713967)" /><g
     id="g24"
     transform="translate(0.253033,-75.713967)" /><g
     id="g26"
     transform="translate(0.253033,-75.713967)" /><g
     id="g28"
     transform="translate(0.253033,-75.713967)" /><g
     id="g30"
     transform="translate(0.253033,-75.713967)" /><g
     id="g32"
     transform="translate(0.253033,-75.713967)" /></svg>