<?xml version="1.0" encoding="UTF-8" standalone="no"?>
<!-- Created with Inkscape (http://www.inkscape.org/) -->

<svg
   xmlns:dc="http://purl.org/dc/elements/1.1/"
   xmlns:cc="http://creativecommons.org/ns#"
   xmlns:rdf="http://www.w3.org/1999/02/22-rdf-syntax-ns#"
   xmlns:svg="http://www.w3.org/2000/svg"
   xmlns="http://www.w3.org/2000/svg"
   xmlns:sodipodi="http://sodipodi.sourceforge.net/DTD/sodipodi-0.dtd"
   xmlns:inkscape="http://www.inkscape.org/namespaces/inkscape"
   width="199.99763mm"
   height="60mm"
   viewBox="0 0 199.99763 60"
   version="1.1"
   id="svg8"
   sodipodi:docname="event.svg"
   inkscape:version="0.92.2 (5c3e80d, 2017-08-06)"
   inkscape:export-filename="C:\Users\bwilson\sc\ScorekeeperFrontend\src\main\resources\images\reg002.png"
   inkscape:export-xdpi="10.16"
   inkscape:export-ydpi="10.16">
  <defs
     id="defs2" />
  <sodipodi:namedview
     id="base"
     pagecolor="#ffffff"
     bordercolor="#666666"
     borderopacity="1.0"
     inkscape:pageopacity="0.0"
     inkscape:pageshadow="2"
     inkscape:zoom="1"
     inkscape:cx="590.5731"
     inkscape:cy="-135.74803"
     inkscape:document-units="mm"
     inkscape:current-layer="layer1"
     showgrid="false"
     fit-margin-top="0"
     fit-margin-left="0"
     fit-margin-right="0"
     fit-margin-bottom="0"
     inkscape:window-width="1920"
     inkscape:window-height="1027"
     inkscape:window-x="1912"
     inkscape:window-y="-8"
     inkscape:window-maximized="1"
     showborder="false" />
  <metadata
     id="metadata5">
    <rdf:RDF>
      <cc:Work
         rdf:about="">
        <dc:format>image/svg+xml</dc:format>
        <dc:type
           rdf:resource="http://purl.org/dc/dcmitype/StillImage" />
        <dc:title />
      </cc:Work>
    </rdf:RDF>
  </metadata>
  <g
     inkscape:label="Layer 1"
     inkscape:groupmode="layer"
     id="layer1"
     transform="translate(-0.00237)">
    <g
       id="g4148"
       transform="matrix(1.2515702,0,0,1.3087123,140.00161,-1.3698942)">
      <path
         id="path4093"
         d="m 26.285,2.486 5.407,10.956 c 0.376,0.762 1.103,1.29 1.944,1.412 l 12.091,1.757 c 2.118,0.308 2.963,2.91 1.431,4.403 l -8.749,8.528 c -0.608,0.593 -0.886,1.448 -0.742,2.285 l 2.065,12.042 c 0.362,2.109 -1.852,3.717 -3.746,2.722 L 25.172,40.906 c -0.752,-0.395 -1.651,-0.395 -2.403,0 L 11.955,46.591 C 10.061,47.587 7.847,45.978 8.209,43.869 L 10.274,31.827 C 10.418,30.99 10.14,30.135 9.532,29.542 L 0.783,21.014 C -0.749,19.52 0.096,16.918 2.214,16.611 l 12.091,-1.757 c 0.841,-0.122 1.568,-0.65 1.944,-1.412 L 21.656,2.486 c 0.946,-1.919 3.682,-1.919 4.629,0 z"
         style="fill:#ed8a19"
         inkscape:connector-curvature="0" />
      <g
         id="g4095" />
      <g
         id="g4097" />
      <g
         id="g4099" />
      <g
         id="g4101" />
      <g
         id="g4103" />
      <g
         id="g4105" />
      <g
         id="g4107" />
      <g
         id="g4109" />
      <g
         id="g4111" />
      <g
         id="g4113" />
      <g
         id="g4115" />
      <g
         id="g4117" />
      <g
         id="g4119" />
      <g
         id="g4121" />
      <g
         id="g4123" />
    </g>
  </g>
</svg>
