<?xml version="1.0" encoding="UTF-8" standalone="no"?>
<!-- Created with Inkscape (http://www.inkscape.org/) -->

<svg
   xmlns:dc="http://purl.org/dc/elements/1.1/"
   xmlns:cc="http://creativecommons.org/ns#"
   xmlns:rdf="http://www.w3.org/1999/02/22-rdf-syntax-ns#"
   xmlns:svg="http://www.w3.org/2000/svg"
   xmlns="http://www.w3.org/2000/svg"
   xmlns:sodipodi="http://sodipodi.sourceforge.net/DTD/sodipodi-0.dtd"
   xmlns:inkscape="http://www.inkscape.org/namespaces/inkscape"
   width="284.86465mm"
   height="78.144417mm"
   viewBox="0 0 284.86465 78.144416"
   version="1.1"
   id="svg8"
   sodipodi:docname="legend.svg"
   inkscape:version="0.92.2 (5c3e80d, 2017-08-06)"
   inkscape:export-filename="C:\Users\bwilson\sc\ScorekeeperFrontend\src\main\resources\images\legend.png"
   inkscape:export-xdpi="16.704428"
   inkscape:export-ydpi="16.704428">
  <defs
     id="defs2" />
  <sodipodi:namedview
     id="base"
     pagecolor="#ffffff"
     bordercolor="#666666"
     borderopacity="1.0"
     inkscape:pageopacity="0.0"
     inkscape:pageshadow="2"
     inkscape:zoom="0.70710678"
     inkscape:cx="619.41448"
     inkscape:cy="127.01881"
     inkscape:document-units="mm"
     inkscape:current-layer="layer1"
     showgrid="false"
     fit-margin-top="0"
     fit-margin-left="0"
     fit-margin-right="0"
     fit-margin-bottom="0"
     inkscape:window-width="1604"
     inkscape:window-height="901"
     inkscape:window-x="2081"
     inkscape:window-y="24"
     inkscape:window-maximized="0"
     showborder="true" />
  <metadata
     id="metadata5">
    <rdf:RDF>
      <cc:Work
         rdf:about="">
        <dc:format>image/svg+xml</dc:format>
        <dc:type
           rdf:resource="http://purl.org/dc/dcmitype/StillImage" />
        <dc:title></dc:title>
      </cc:Work>
    </rdf:RDF>
  </metadata>
  <g
     inkscape:label="Layer 1"
     inkscape:groupmode="layer"
     id="layer1"
     transform="translate(42.793982,49.087938)">
    <g
       id="g3798"
       transform="matrix(0.1094561,0,0,0.10945559,-22.772745,-49.087938)">
      <g
         id="g3742">
        <path
           id="path3740"
           d="M 409.133,109.203 C 389.525,75.611 362.928,49.014 329.335,29.407 295.736,9.801 259.058,0 219.273,0 179.492,0 142.803,9.801 109.21,29.407 75.615,49.011 49.018,75.608 29.41,109.203 9.801,142.8 0,179.489 0,219.267 c 0,39.78 9.804,76.463 29.407,110.062 19.607,33.592 46.204,60.189 79.799,79.798 33.597,19.605 70.283,29.407 110.063,29.407 39.78,0 76.47,-9.802 110.065,-29.407 33.593,-19.602 60.189,-46.206 79.795,-79.798 19.603,-33.596 29.403,-70.284 29.403,-110.062 0.001,-39.782 -9.8,-76.472 -29.399,-110.064 z m -47.688,76.66 -155.025,155.026 c -3.617,3.62 -7.992,5.428 -13.134,5.428 -4.948,0 -9.229,-1.808 -12.847,-5.428 L 77.083,237.539 c -3.422,-3.429 -5.137,-7.703 -5.137,-12.847 0,-5.328 1.709,-9.709 5.137,-13.136 l 25.981,-25.693 c 3.621,-3.616 7.898,-5.424 12.85,-5.424 4.952,0 9.235,1.809 12.85,5.424 l 64.525,64.523 116.485,-116.199 c 3.617,-3.617 7.898,-5.426 12.847,-5.426 4.945,0 9.233,1.809 12.847,5.426 l 25.981,25.697 c 3.432,3.424 5.14,7.801 5.14,13.129 0,5.141 -1.708,9.424 -5.144,12.85 z"
           inkscape:connector-curvature="0" />
      </g>
      <g
         id="g3744" />
      <g
         id="g3746" />
      <g
         id="g3748" />
      <g
         id="g3750" />
      <g
         id="g3752" />
      <g
         id="g3754" />
      <g
         id="g3756" />
      <g
         id="g3758" />
      <g
         id="g3760" />
      <g
         id="g3762" />
      <g
         id="g3764" />
      <g
         id="g3766" />
      <g
         id="g3768" />
      <g
         id="g3770" />
      <g
         id="g3772" />
    </g>
    <g
       id="g4148"
       transform="matrix(1.0012562,0,0,1.0469698,75.342901,-50.183854)">
      <path
         id="path4093"
         d="m 26.285,2.486 5.407,10.956 c 0.376,0.762 1.103,1.29 1.944,1.412 l 12.091,1.757 c 2.118,0.308 2.963,2.91 1.431,4.403 l -8.749,8.528 c -0.608,0.593 -0.886,1.448 -0.742,2.285 l 2.065,12.042 c 0.362,2.109 -1.852,3.717 -3.746,2.722 L 25.172,40.906 c -0.752,-0.395 -1.651,-0.395 -2.403,0 L 11.955,46.591 C 10.061,47.587 7.847,45.978 8.209,43.869 L 10.274,31.827 C 10.418,30.99 10.14,30.135 9.532,29.542 L 0.783,21.014 C -0.749,19.52 0.096,16.918 2.214,16.611 l 12.091,-1.757 c 0.841,-0.122 1.568,-0.65 1.944,-1.412 L 21.656,2.486 c 0.946,-1.919 3.682,-1.919 4.629,0 z"
         style="fill:#ed8a19"
         inkscape:connector-curvature="0" />
      <g
         id="g4095" />
      <g
         id="g4097" />
      <g
         id="g4099" />
      <g
         id="g4101" />
      <g
         id="g4103" />
      <g
         id="g4105" />
      <g
         id="g4107" />
      <g
         id="g4109" />
      <g
         id="g4111" />
      <g
         id="g4113" />
      <g
         id="g4115" />
      <g
         id="g4117" />
      <g
         id="g4119" />
      <g
         id="g4121" />
      <g
         id="g4123" />
    </g>
    <g
       id="g4000"
       transform="matrix(0.09851763,0,0,0.10318142,169.91005,-50.224068)">
      <g
         id="g3944">
        <path
           id="path3942"
           d="m 486.554,186.811 c -1.6,-4.9 -5.8,-8.4 -10.9,-9.2 l -152,-21.6 -68.4,-137.5 c -2.3,-4.6 -7,-7.5 -12.1,-7.5 v 0 c -5.1,0 -9.8,2.9 -12.1,7.6 l -67.5,137.9 -152,22.6 c -5.1,0.8 -9.3,4.3 -10.9,9.2 -1.6,4.9 -0.2,10.3 3.5,13.8 l 110.3,106.9 -25.5,151.4 c -0.9,5.1 1.2,10.2 5.4,13.2 2.3,1.7 5.1,2.6 7.9,2.6 2.2,0 4.3,-0.5 6.3,-1.6 l 135.7,-71.9 136.1,71.1 c 2,1 4.1,1.5 6.2,1.5 v 0 c 7.4,0 13.5,-6.1 13.5,-13.5 0,-1.1 -0.1,-2.1 -0.4,-3.1 l -26.3,-150.5 109.6,-107.5 c 3.9,-3.6 5.2,-9 3.6,-13.9 z m -137,107.1 c -3.2,3.1 -4.6,7.6 -3.8,12 l 22.9,131.3 -118.2,-61.7 c -3.9,-2.1 -8.6,-2 -12.6,0 l -117.8,62.4 22.1,-131.5 c 0.7,-4.4 -0.7,-8.8 -3.9,-11.9 l -95.6,-92.8 131.9,-19.6 c 4.4,-0.7 8.2,-3.4 10.1,-7.4 l 58.6,-119.7 59.4,119.4 c 2,4 5.8,6.7 10.2,7.4 l 132,18.8 z"
           inkscape:connector-curvature="0" />
      </g>
      <g
         id="g3946" />
      <g
         id="g3948" />
      <g
         id="g3950" />
      <g
         id="g3952" />
      <g
         id="g3954" />
      <g
         id="g3956" />
      <g
         id="g3958" />
      <g
         id="g3960" />
      <g
         id="g3962" />
      <g
         id="g3964" />
      <g
         id="g3966" />
      <g
         id="g3968" />
      <g
         id="g3970" />
      <g
         id="g3972" />
      <g
         id="g3974" />
    </g>
    <text
       xml:space="preserve"
       style="font-style:normal;font-variant:normal;font-weight:normal;font-stretch:normal;font-size:16.93333244px;line-height:1.25;font-family:sans-serif;-inkscape-font-specification:'sans-serif, Normal';font-variant-ligatures:normal;font-variant-caps:normal;font-variant-numeric:normal;font-feature-settings:normal;text-align:start;letter-spacing:0px;word-spacing:0px;writing-mode:lr-tb;text-anchor:start;fill:#000000;fill-opacity:1;stroke:none;stroke-width:0.26458332"
       x="-44.447628"
       y="20.841669"
       id="text3791"><tspan
         sodipodi:role="line"
         id="tspan3789"
         x="-44.447628"
         y="20.841669"
         style="font-style:normal;font-variant:normal;font-weight:normal;font-stretch:normal;font-size:16.93333244px;font-family:sans-serif;-inkscape-font-specification:'sans-serif, Normal';font-variant-ligatures:normal;font-variant-caps:normal;font-variant-numeric:normal;font-feature-settings:normal;text-align:start;writing-mode:lr-tb;text-anchor:start;stroke-width:0.26458332">Registered</tspan></text>
    <text
       xml:space="preserve"
       style="font-style:normal;font-variant:normal;font-weight:normal;font-stretch:normal;font-size:16.93333244px;line-height:1.25;font-family:sans-serif;-inkscape-font-specification:'sans-serif, Normal';font-variant-ligatures:normal;font-variant-caps:normal;font-variant-numeric:normal;font-feature-settings:normal;text-align:start;letter-spacing:0px;word-spacing:0px;writing-mode:lr-tb;text-anchor:start;fill:#000000;fill-opacity:1;stroke:none;stroke-width:0.26458332"
       x="194.20363"
       y="15.387221"
       id="text3799"><tspan
         sodipodi:role="line"
         x="194.20363"
         y="15.387221"
         style="font-style:normal;font-variant:normal;font-weight:normal;font-stretch:normal;font-size:14.11111069px;font-family:sans-serif;-inkscape-font-specification:'sans-serif, Normal';font-variant-ligatures:normal;font-variant-caps:normal;font-variant-numeric:normal;font-feature-settings:normal;text-align:center;writing-mode:lr-tb;baseline-shift:baseline;text-anchor:middle;stroke-width:0.26458332"
         id="tspan3805">Used in</tspan></text>
    <text
       xml:space="preserve"
       style="font-style:normal;font-variant:normal;font-weight:normal;font-stretch:normal;font-size:16.93333244px;line-height:1.25;font-family:sans-serif;-inkscape-font-specification:'sans-serif, Normal';font-variant-ligatures:normal;font-variant-caps:normal;font-variant-numeric:normal;font-feature-settings:normal;text-align:start;letter-spacing:0px;word-spacing:0px;writing-mode:lr-tb;text-anchor:start;fill:#000000;fill-opacity:1;stroke:none;stroke-width:0.26458332"
       x="98.963829"
       y="21.136076"
       id="text3803"><tspan
         sodipodi:role="line"
         x="98.963829"
         y="21.136076"
         style="font-style:normal;font-variant:normal;font-weight:normal;font-stretch:normal;font-size:16.93333244px;font-family:sans-serif;-inkscape-font-specification:'sans-serif, Normal';font-variant-ligatures:normal;font-variant-caps:normal;font-variant-numeric:normal;font-feature-settings:normal;text-align:center;writing-mode:lr-tb;text-anchor:middle;stroke-width:0.26458332"
         id="tspan3807">Runorder</tspan></text>
    <text
       xml:space="preserve"
       style="font-style:normal;font-weight:normal;font-size:10.58333302px;line-height:1.25;font-family:sans-serif;letter-spacing:0px;word-spacing:0px;fill:#000000;fill-opacity:1;stroke:none;stroke-width:0.26458332"
       x="150.21753"
       y="28.842886"
       id="text3813"><tspan
         sodipodi:role="line"
         id="tspan3811"
         x="150.21753"
         y="28.842886"
         style="font-size:14.11111069px;stroke-width:0.26458332">Other Events</tspan></text>
  </g>
</svg>
