<?xml version="1.0" encoding="UTF-8" standalone="no"?>
<!-- Created with Inkscape (http://www.inkscape.org/) -->

<svg
   xmlns:dc="http://purl.org/dc/elements/1.1/"
   xmlns:cc="http://creativecommons.org/ns#"
   xmlns:rdf="http://www.w3.org/1999/02/22-rdf-syntax-ns#"
   xmlns:svg="http://www.w3.org/2000/svg"
   xmlns="http://www.w3.org/2000/svg"
   xmlns:sodipodi="http://sodipodi.sourceforge.net/DTD/sodipodi-0.dtd"
   xmlns:inkscape="http://www.inkscape.org/namespaces/inkscape"
   width="130mm"
   height="60mm"
   viewBox="0 0 130 60"
   version="1.1"
   id="svg8"
   sodipodi:docname="other.svg"
   inkscape:version="0.92.2 (5c3e80d, 2017-08-06)"
   inkscape:export-filename="C:\Users\bwilson\sc\ScorekeeperFrontend\src\main\resources\images\reg01.png"
   inkscape:export-xdpi="10.16"
   inkscape:export-ydpi="10.16">
  <defs
     id="defs2" />
  <sodipodi:namedview
     id="base"
     pagecolor="#ffffff"
     bordercolor="#666666"
     borderopacity="1.0"
     inkscape:pageopacity="0.0"
     inkscape:pageshadow="2"
     inkscape:zoom="1"
     inkscape:cx="187.67717"
     inkscape:cy="50.322097"
     inkscape:document-units="mm"
     inkscape:current-layer="layer1"
     showgrid="false"
     fit-margin-top="0"
     fit-margin-left="0"
     fit-margin-right="0"
     fit-margin-bottom="0"
     inkscape:window-width="1554"
     inkscape:window-height="794"
     inkscape:window-x="2082"
     inkscape:window-y="167"
     inkscape:window-maximized="0" />
  <metadata
     id="metadata5">
    <rdf:RDF>
      <cc:Work
         rdf:about="">
        <dc:format>image/svg+xml</dc:format>
        <dc:type
           rdf:resource="http://purl.org/dc/dcmitype/StillImage" />
        <dc:title />
      </cc:Work>
    </rdf:RDF>
  </metadata>
  <g
     inkscape:label="Layer 1"
     inkscape:groupmode="layer"
     id="layer1"
     transform="translate(-0.00237,-1.7723401e-6)">
    <g
       id="g4000"
       transform="matrix(0.12314704,0,0,0.12897678,70.002362,-1.4201614)">
      <g
         id="g3944">
        <path
           id="path3942"
           d="m 486.554,186.811 c -1.6,-4.9 -5.8,-8.4 -10.9,-9.2 l -152,-21.6 -68.4,-137.5 c -2.3,-4.6 -7,-7.5 -12.1,-7.5 v 0 c -5.1,0 -9.8,2.9 -12.1,7.6 l -67.5,137.9 -152,22.6 c -5.1,0.8 -9.3,4.3 -10.9,9.2 -1.6,4.9 -0.2,10.3 3.5,13.8 l 110.3,106.9 -25.5,151.4 c -0.9,5.1 1.2,10.2 5.4,13.2 2.3,1.7 5.1,2.6 7.9,2.6 2.2,0 4.3,-0.5 6.3,-1.6 l 135.7,-71.9 136.1,71.1 c 2,1 4.1,1.5 6.2,1.5 v 0 c 7.4,0 13.5,-6.1 13.5,-13.5 0,-1.1 -0.1,-2.1 -0.4,-3.1 l -26.3,-150.5 109.6,-107.5 c 3.9,-3.6 5.2,-9 3.6,-13.9 z m -137,107.1 c -3.2,3.1 -4.6,7.6 -3.8,12 l 22.9,131.3 -118.2,-61.7 c -3.9,-2.1 -8.6,-2 -12.6,0 l -117.8,62.4 22.1,-131.5 c 0.7,-4.4 -0.7,-8.8 -3.9,-11.9 l -95.6,-92.8 131.9,-19.6 c 4.4,-0.7 8.2,-3.4 10.1,-7.4 l 58.6,-119.7 59.4,119.4 c 2,4 5.8,6.7 10.2,7.4 l 132,18.8 z"
           inkscape:connector-curvature="0" />
      </g>
      <g
         id="g3946" />
      <g
         id="g3948" />
      <g
         id="g3950" />
      <g
         id="g3952" />
      <g
         id="g3954" />
      <g
         id="g3956" />
      <g
         id="g3958" />
      <g
         id="g3960" />
      <g
         id="g3962" />
      <g
         id="g3964" />
      <g
         id="g3966" />
      <g
         id="g3968" />
      <g
         id="g3970" />
      <g
         id="g3972" />
      <g
         id="g3974" />
    </g>
  </g>
</svg>
