<?xml version="1.0" encoding="UTF-8" standalone="no"?>
<!-- Created with Inkscape (http://www.inkscape.org/) -->

<svg
   xmlns:dc="http://purl.org/dc/elements/1.1/"
   xmlns:cc="http://creativecommons.org/ns#"
   xmlns:rdf="http://www.w3.org/1999/02/22-rdf-syntax-ns#"
   xmlns:svg="http://www.w3.org/2000/svg"
   xmlns="http://www.w3.org/2000/svg"
   xmlns:sodipodi="http://sodipodi.sourceforge.net/DTD/sodipodi-0.dtd"
   xmlns:inkscape="http://www.inkscape.org/namespaces/inkscape"
   width="199.99763mm"
   height="60mm"
   viewBox="0 0 199.99763 60"
   version="1.1"
   id="svg8"
   inkscape:version="0.92.2 (5c3e80d, 2017-08-06)"
   sodipodi:docname="regpaidother.svg"
   inkscape:export-filename="C:\Users\bwilson\Desktop\product\regpaidother.png"
   inkscape:export-xdpi="10.16"
   inkscape:export-ydpi="10.16">
  <defs
     id="defs2" />
  <sodipodi:namedview
     id="base"
     pagecolor="#ffffff"
     bordercolor="#666666"
     borderopacity="1.0"
     inkscape:pageopacity="0.0"
     inkscape:pageshadow="2"
     inkscape:zoom="1"
     inkscape:cx="223.99104"
     inkscape:cy="-135.74803"
     inkscape:document-units="mm"
     inkscape:current-layer="layer1"
     showgrid="false"
     fit-margin-top="0"
     fit-margin-left="0"
     fit-margin-right="0"
     fit-margin-bottom="0"
     inkscape:window-width="1920"
     inkscape:window-height="1001"
     inkscape:window-x="-9"
     inkscape:window-y="-9"
     inkscape:window-maximized="1" />
  <metadata
     id="metadata5">
    <rdf:RDF>
      <cc:Work
         rdf:about="">
        <dc:format>image/svg+xml</dc:format>
        <dc:type
           rdf:resource="http://purl.org/dc/dcmitype/StillImage" />
        <dc:title />
      </cc:Work>
    </rdf:RDF>
  </metadata>
  <g
     inkscape:label="Layer 1"
     inkscape:groupmode="layer"
     id="layer1"
     transform="translate(-0.00237)">
    <g
       id="g3798"
       transform="matrix(0.13682012,0,0,0.13681949,0.00237,1.7723401e-6)">
      <g
         id="g3742">
        <path
           id="path3740"
           d="M 409.133,109.203 C 389.525,75.611 362.928,49.014 329.335,29.407 295.736,9.801 259.058,0 219.273,0 179.492,0 142.803,9.801 109.21,29.407 75.615,49.011 49.018,75.608 29.41,109.203 9.801,142.8 0,179.489 0,219.267 c 0,39.78 9.804,76.463 29.407,110.062 19.607,33.592 46.204,60.189 79.799,79.798 33.597,19.605 70.283,29.407 110.063,29.407 39.78,0 76.47,-9.802 110.065,-29.407 33.593,-19.602 60.189,-46.206 79.795,-79.798 19.603,-33.596 29.403,-70.284 29.403,-110.062 0.001,-39.782 -9.8,-76.472 -29.399,-110.064 z m -47.688,76.66 -155.025,155.026 c -3.617,3.62 -7.992,5.428 -13.134,5.428 -4.948,0 -9.229,-1.808 -12.847,-5.428 L 77.083,237.539 c -3.422,-3.429 -5.137,-7.703 -5.137,-12.847 0,-5.328 1.709,-9.709 5.137,-13.136 l 25.981,-25.693 c 3.621,-3.616 7.898,-5.424 12.85,-5.424 4.952,0 9.235,1.809 12.85,5.424 l 64.525,64.523 116.485,-116.199 c 3.617,-3.617 7.898,-5.426 12.847,-5.426 4.945,0 9.233,1.809 12.847,5.426 l 25.981,25.697 c 3.432,3.424 5.14,7.801 5.14,13.129 0,5.141 -1.708,9.424 -5.144,12.85 z"
           inkscape:connector-curvature="0" />
      </g>
      <g
         id="g3744" />
      <g
         id="g3746" />
      <g
         id="g3748" />
      <g
         id="g3750" />
      <g
         id="g3752" />
      <g
         id="g3754" />
      <g
         id="g3756" />
      <g
         id="g3758" />
      <g
         id="g3760" />
      <g
         id="g3762" />
      <g
         id="g3764" />
      <g
         id="g3766" />
      <g
         id="g3768" />
      <g
         id="g3770" />
      <g
         id="g3772" />
    </g>
    <g
       id="g3899"
       transform="matrix(0.1171875,0,0,0.1171875,70,0)">
      <g
         id="g3843">
        <path
           id="path3841"
           d="M 256,0 C 114.625,0 0,114.625 0,256 0,397.375 114.625,512 256,512 397.406,512 512,397.375 512,256 512,114.625 397.406,0 256,0 Z m 69.812,354.844 c -12.594,14.125 -30.78,22.438 -54.562,24.938 V 416 h -30.313 v -36.031 c -39.656,-4.062 -64.188,-27.125 -73.656,-69.125 l 46.875,-12.219 c 4.344,26.406 18.719,39.594 43.125,39.594 11.406,0 19.844,-2.812 25.219,-8.469 5.375,-5.657 8.062,-12.469 8.062,-20.469 0,-8.281 -2.688,-14.563 -8.062,-18.813 -5.375,-4.28 -17.344,-9.688 -35.875,-16.25 -16.656,-5.78 -29.688,-11.469 -39.063,-17.155 -9.375,-5.625 -17,-13.531 -22.844,-23.688 -5.844,-10.188 -8.781,-22.063 -8.781,-35.563 0,-17.719 5.25,-33.688 15.688,-47.875 10.438,-14.156 26.875,-22.813 49.313,-25.969 V 96 h 30.313 v 27.969 c 33.875,4.063 55.813,23.219 65.781,57.5 l -41.75,17.125 c -8.156,-23.5 -20.72,-35.25 -37.781,-35.25 -8.563,0 -15.438,2.625 -20.594,7.875 -5.188,5.25 -7.781,11.625 -7.781,19.094 0,7.625 2.5,13.469 7.5,17.563 4.969,4.063 15.688,9.094 32.063,15.125 18,6.563 32.125,12.781 42.344,18.625 10.25,5.844 18.406,13.938 24.531,24.219 6.094,10.313 9.155,22.345 9.155,36.126 0,21.154 -6.313,38.779 -18.907,52.873 z"
           inkscape:connector-curvature="0"
           style="fill:#119100" />
      </g>
      <g
         id="g3845" />
      <g
         id="g3847" />
      <g
         id="g3849" />
      <g
         id="g3851" />
      <g
         id="g3853" />
      <g
         id="g3855" />
      <g
         id="g3857" />
      <g
         id="g3859" />
      <g
         id="g3861" />
      <g
         id="g3863" />
      <g
         id="g3865" />
      <g
         id="g3867" />
      <g
         id="g3869" />
      <g
         id="g3871" />
      <g
         id="g3873" />
    </g>
    <g
       id="g4000"
       transform="matrix(0.12314704,0,0,0.12897678,139.99999,-1.4201614)">
      <g
         id="g3944">
        <path
           id="path3942"
           d="m 486.554,186.811 c -1.6,-4.9 -5.8,-8.4 -10.9,-9.2 l -152,-21.6 -68.4,-137.5 c -2.3,-4.6 -7,-7.5 -12.1,-7.5 v 0 c -5.1,0 -9.8,2.9 -12.1,7.6 l -67.5,137.9 -152,22.6 c -5.1,0.8 -9.3,4.3 -10.9,9.2 -1.6,4.9 -0.2,10.3 3.5,13.8 l 110.3,106.9 -25.5,151.4 c -0.9,5.1 1.2,10.2 5.4,13.2 2.3,1.7 5.1,2.6 7.9,2.6 2.2,0 4.3,-0.5 6.3,-1.6 l 135.7,-71.9 136.1,71.1 c 2,1 4.1,1.5 6.2,1.5 v 0 c 7.4,0 13.5,-6.1 13.5,-13.5 0,-1.1 -0.1,-2.1 -0.4,-3.1 l -26.3,-150.5 109.6,-107.5 c 3.9,-3.6 5.2,-9 3.6,-13.9 z m -137,107.1 c -3.2,3.1 -4.6,7.6 -3.8,12 l 22.9,131.3 -118.2,-61.7 c -3.9,-2.1 -8.6,-2 -12.6,0 l -117.8,62.4 22.1,-131.5 c 0.7,-4.4 -0.7,-8.8 -3.9,-11.9 l -95.6,-92.8 131.9,-19.6 c 4.4,-0.7 8.2,-3.4 10.1,-7.4 l 58.6,-119.7 59.4,119.4 c 2,4 5.8,6.7 10.2,7.4 l 132,18.8 z"
           inkscape:connector-curvature="0" />
      </g>
      <g
         id="g3946" />
      <g
         id="g3948" />
      <g
         id="g3950" />
      <g
         id="g3952" />
      <g
         id="g3954" />
      <g
         id="g3956" />
      <g
         id="g3958" />
      <g
         id="g3960" />
      <g
         id="g3962" />
      <g
         id="g3964" />
      <g
         id="g3966" />
      <g
         id="g3968" />
      <g
         id="g3970" />
      <g
         id="g3972" />
      <g
         id="g3974" />
    </g>
  </g>
</svg>
